<?xml version="1.0" encoding="utf-8"?>
<!-- Generator: Adobe Illustrator 22.1.0, SVG Export Plug-In . SVG Version: 6.00 Build 0)  -->
<svg version="1.1" id="Layer_1" xmlns="http://www.w3.org/2000/svg" xmlns:xlink="http://www.w3.org/1999/xlink" x="0px" y="0px"
	 viewBox="0 0 500 500" style="enable-background:new 0 0 500 500;" xml:space="preserve">
<g>
	<path d="M404.7,218.4c0-1.1-0.7-0.8-0.7,0c0,1.3-2.3,18.2-3.8,24c-1.7,6.7-3.9,12.3-6.7,16.9c-2.8,4.6-6.4,8-10.8,10.3
		c-4.4,2.2-10.2,3.3-17.2,3.3h-38.7c-5,0-10.4-0.7-14.6-3.5c-3.6-2.4-6.1-6.3-7.5-10.4c-1.8-5.4-1.7-11.1-1.7-16.7
		c0-3.2-0.1-170.1,0-170.3l9.7-10.4c0.2-0.2,0-0.5-0.2-0.5h-60.9v200.2c0,17.4,3.8,30.9,11.4,40.5c7.6,9.6,22.1,14.4,43.5,14.4h76.2
		c16.6,0,29.6-4.3,38.8-12.8c7.9-7.3,12.7-20,14.4-30.5C419.2,266,404.7,246.2,404.7,218.4"/>
	<path d="M122,61.1L122,61.1c0,0-0.1,170.6,0,176.2c0.3,27.6,0.4,56.1-1.7,83.9c-0.4,4.8-0.8,9.2-1.3,13.4
		c-4.2,34.2-14.3,61.2-31.6,80.8c-5.8,6.5-9.3,12.3-20.3,20.6c-3.2,2.4-2.3,2.1-0.4,1.7c2.4-0.5,5.8-1.5,5.8-1.5l0,0
		c18.3-5.8,31.7-13.5,44.4-23.1c21.3-16.1,38-39.3,47-65.4c7.6-22,7.8-43.5,7.9-66.2c0-2.8-0.2-180.1-0.3-214.2h45.1l5.5-5.9
		c0.2-0.2,0.1-0.4-0.1-0.4h-50.6L122,61.1L122,61.1z"/>
</g>
</svg>
